<mxfile host="65bd71144e" scale="1" border="0" disableSvgWarning="true" linkTarget="_blank">
    <diagram name="Page-1" id="zo4WBBcyATChdUDADUly">
        <mxGraphModel dx="1416" dy="1027" grid="1" gridSize="10" guides="1" tooltips="1" connect="1" arrows="1" fold="1" page="0" pageScale="1" pageWidth="850" pageHeight="1100" math="0" shadow="0">
            <root>
                <mxCell id="0"/>
                <mxCell id="1" parent="0"/>
                <mxCell id="6" value="Vertical Container" style="swimlane;whiteSpace=wrap;html=1;swimlaneFillColor=default;" vertex="1" parent="1">
                    <mxGeometry x="-290" y="70" width="360" height="200" as="geometry"/>
                </mxCell>
                <mxCell id="9" value="&lt;span id=&quot;docs-internal-guid-f1325d4c-7fff-b18c-7b77-cb8e79276ec5&quot;&gt;&lt;p style=&quot;line-height:1.38;margin-top:12pt;margin-bottom:12pt;&quot; dir=&quot;ltr&quot;&gt;&lt;span style=&quot;font-size: 12pt; font-family: &amp;quot;Roboto Mono&amp;quot;, monospace; color: rgb(0, 0, 0); background-color: transparent; font-variant-numeric: normal; font-variant-east-asian: normal; font-variant-alternates: normal; font-variant-position: normal; font-variant-emoji: normal; vertical-align: baseline; white-space-collapse: preserve;&quot;&gt;Make post on LinkedIn based on &lt;/span&gt;&lt;span style=&quot;font-size: 12pt; font-family: &amp;quot;Roboto Mono&amp;quot;, monospace; color: rgb(9, 105, 217); background-color: transparent; font-weight: 700; font-variant-numeric: normal; font-variant-east-asian: normal; font-variant-alternates: normal; font-variant-position: normal; font-variant-emoji: normal; vertical-align: baseline; white-space-collapse: preserve;&quot;&gt;@Input&lt;/span&gt;&lt;span style=&quot;font-size: 12pt; font-family: &amp;quot;Roboto Mono&amp;quot;, monospace; color: rgb(0, 0, 0); background-color: transparent; font-variant-numeric: normal; font-variant-east-asian: normal; font-variant-alternates: normal; font-variant-position: normal; font-variant-emoji: normal; vertical-align: baseline; white-space-collapse: preserve;&quot;&gt;.&lt;/span&gt;&lt;/p&gt;&lt;p style=&quot;line-height:1.42125;margin-top:14pt;margin-bottom:0pt;&quot; dir=&quot;ltr&quot;&gt;&lt;span style=&quot;font-size: 12pt; font-family: &amp;quot;Roboto Mono&amp;quot;, monospace; color: rgb(153, 0, 0); background-color: transparent; font-weight: 700; font-variant-numeric: normal; font-variant-east-asian: normal; font-variant-alternates: normal; font-variant-position: normal; font-variant-emoji: normal; vertical-align: baseline; white-space-collapse: preserve;&quot;&gt;PERSONA &lt;/span&gt;&lt;span style=&quot;font-size: 12pt; font-family: &amp;quot;Roboto Mono&amp;quot;, monospace; color: rgb(9, 105, 217); background-color: transparent; font-weight: 700; font-variant-numeric: normal; font-variant-east-asian: normal; font-variant-alternates: normal; font-variant-position: normal; font-variant-emoji: normal; vertical-align: baseline; white-space-collapse: preserve;&quot;&gt;@Jane&lt;/span&gt;&lt;span style=&quot;font-size: 12pt; font-family: &amp;quot;Roboto Mono&amp;quot;, monospace; color: rgb(0, 0, 0); background-color: transparent; font-variant-numeric: normal; font-variant-east-asian: normal; font-variant-alternates: normal; font-variant-position: normal; font-variant-emoji: normal; vertical-align: baseline; white-space-collapse: preserve;&quot;&gt;, an experienced copywriter and HR expert&lt;/span&gt;&lt;/p&gt;&lt;p style=&quot;line-height:1.40625;margin-top:0pt;margin-bottom:0pt;&quot; dir=&quot;ltr&quot;&gt;&lt;span style=&quot;font-size: 12pt; font-family: &amp;quot;Roboto Mono&amp;quot;, monospace; color: rgb(153, 0, 0); background-color: transparent; font-weight: 700; font-variant-numeric: normal; font-variant-east-asian: normal; font-variant-alternates: normal; font-variant-position: normal; font-variant-emoji: normal; vertical-align: baseline; white-space-collapse: preserve;&quot;&gt;KNOWLEDGE &lt;/span&gt;&lt;span style=&quot;font-size: 12pt; font-family: &amp;quot;Roboto Mono&amp;quot;, monospace; color: rgb(0, 0, 0); background-color: transparent; font-variant-numeric: normal; font-variant-east-asian: normal; font-variant-alternates: normal; font-variant-position: normal; font-variant-emoji: normal; vertical-align: baseline; white-space-collapse: preserve;&quot;&gt;cetin.cz&lt;/span&gt;&lt;/p&gt;&lt;p style=&quot;line-height:1.40625;margin-top:0pt;margin-bottom:0pt;&quot; dir=&quot;ltr&quot;&gt;&lt;span style=&quot;font-size: 12pt; font-family: &amp;quot;Roboto Mono&amp;quot;, monospace; color: rgb(153, 0, 0); background-color: transparent; font-weight: 700; font-variant-numeric: normal; font-variant-east-asian: normal; font-variant-alternates: normal; font-variant-position: normal; font-variant-emoji: normal; vertical-align: baseline; white-space-collapse: preserve;&quot;&gt;KNOWLEDGE &lt;/span&gt;&lt;span style=&quot;font-size: 11pt; font-family: &amp;quot;Roboto Mono&amp;quot;, monospace; color: rgb(0, 0, 0); background-color: transparent; font-variant-numeric: normal; font-variant-east-asian: normal; font-variant-alternates: normal; font-variant-position: normal; font-variant-emoji: normal; vertical-align: baseline; white-space-collapse: preserve;&quot;&gt;linkedin.com/company/cetin/&lt;/span&gt;&lt;/p&gt;&lt;div&gt;&lt;span style=&quot;font-size: 11pt; font-family: &amp;quot;Roboto Mono&amp;quot;, monospace; color: rgb(0, 0, 0); background-color: transparent; font-variant-numeric: normal; font-variant-east-asian: normal; font-variant-alternates: normal; font-variant-position: normal; font-variant-emoji: normal; vertical-align: baseline; white-space-collapse: preserve;&quot;&gt;&lt;br&gt;&lt;/span&gt;&lt;/div&gt;&lt;/span&gt;" style="text;html=1;align=left;verticalAlign=middle;whiteSpace=wrap;rounded=0;" vertex="1" parent="6">
                    <mxGeometry y="30" width="360" height="170" as="geometry"/>
                </mxCell>
                <mxCell id="10" value="Vertical Container" style="swimlane;whiteSpace=wrap;html=1;swimlaneFillColor=default;" vertex="1" parent="1">
                    <mxGeometry x="150" y="-40" width="360" height="200" as="geometry"/>
                </mxCell>
                <mxCell id="11" value="&lt;span id=&quot;docs-internal-guid-f1325d4c-7fff-b18c-7b77-cb8e79276ec5&quot;&gt;&lt;p style=&quot;line-height:1.38;margin-top:12pt;margin-bottom:12pt;&quot; dir=&quot;ltr&quot;&gt;&lt;span style=&quot;font-size: 12pt; font-family: &amp;quot;Roboto Mono&amp;quot;, monospace; color: rgb(0, 0, 0); background-color: transparent; font-variant-numeric: normal; font-variant-east-asian: normal; font-variant-alternates: normal; font-variant-position: normal; font-variant-emoji: normal; vertical-align: baseline; white-space-collapse: preserve;&quot;&gt;Make post on LinkedIn based on &lt;/span&gt;&lt;span style=&quot;font-size: 12pt; font-family: &amp;quot;Roboto Mono&amp;quot;, monospace; color: rgb(9, 105, 217); background-color: transparent; font-weight: 700; font-variant-numeric: normal; font-variant-east-asian: normal; font-variant-alternates: normal; font-variant-position: normal; font-variant-emoji: normal; vertical-align: baseline; white-space-collapse: preserve;&quot;&gt;@Input&lt;/span&gt;&lt;span style=&quot;font-size: 12pt; font-family: &amp;quot;Roboto Mono&amp;quot;, monospace; color: rgb(0, 0, 0); background-color: transparent; font-variant-numeric: normal; font-variant-east-asian: normal; font-variant-alternates: normal; font-variant-position: normal; font-variant-emoji: normal; vertical-align: baseline; white-space-collapse: preserve;&quot;&gt;.&lt;/span&gt;&lt;/p&gt;&lt;p style=&quot;line-height:1.42125;margin-top:14pt;margin-bottom:0pt;&quot; dir=&quot;ltr&quot;&gt;&lt;span style=&quot;font-size: 12pt; font-family: &amp;quot;Roboto Mono&amp;quot;, monospace; color: rgb(153, 0, 0); background-color: transparent; font-weight: 700; font-variant-numeric: normal; font-variant-east-asian: normal; font-variant-alternates: normal; font-variant-position: normal; font-variant-emoji: normal; vertical-align: baseline; white-space-collapse: preserve;&quot;&gt;PERSONA &lt;/span&gt;&lt;span style=&quot;font-size: 12pt; font-family: &amp;quot;Roboto Mono&amp;quot;, monospace; color: rgb(9, 105, 217); background-color: transparent; font-weight: 700; font-variant-numeric: normal; font-variant-east-asian: normal; font-variant-alternates: normal; font-variant-position: normal; font-variant-emoji: normal; vertical-align: baseline; white-space-collapse: preserve;&quot;&gt;@Jane&lt;/span&gt;&lt;span style=&quot;font-size: 12pt; font-family: &amp;quot;Roboto Mono&amp;quot;, monospace; color: rgb(0, 0, 0); background-color: transparent; font-variant-numeric: normal; font-variant-east-asian: normal; font-variant-alternates: normal; font-variant-position: normal; font-variant-emoji: normal; vertical-align: baseline; white-space-collapse: preserve;&quot;&gt;, an experienced copywriter and HR expert&lt;/span&gt;&lt;/p&gt;&lt;p style=&quot;line-height:1.40625;margin-top:0pt;margin-bottom:0pt;&quot; dir=&quot;ltr&quot;&gt;&lt;span style=&quot;font-size: 12pt; font-family: &amp;quot;Roboto Mono&amp;quot;, monospace; color: rgb(153, 0, 0); background-color: transparent; font-weight: 700; font-variant-numeric: normal; font-variant-east-asian: normal; font-variant-alternates: normal; font-variant-position: normal; font-variant-emoji: normal; vertical-align: baseline; white-space-collapse: preserve;&quot;&gt;KNOWLEDGE &lt;/span&gt;&lt;span style=&quot;font-size: 12pt; font-family: &amp;quot;Roboto Mono&amp;quot;, monospace; color: rgb(0, 0, 0); background-color: transparent; font-variant-numeric: normal; font-variant-east-asian: normal; font-variant-alternates: normal; font-variant-position: normal; font-variant-emoji: normal; vertical-align: baseline; white-space-collapse: preserve;&quot;&gt;cetin.cz&lt;/span&gt;&lt;/p&gt;&lt;p style=&quot;line-height:1.40625;margin-top:0pt;margin-bottom:0pt;&quot; dir=&quot;ltr&quot;&gt;&lt;span style=&quot;font-size: 12pt; font-family: &amp;quot;Roboto Mono&amp;quot;, monospace; color: rgb(153, 0, 0); background-color: transparent; font-weight: 700; font-variant-numeric: normal; font-variant-east-asian: normal; font-variant-alternates: normal; font-variant-position: normal; font-variant-emoji: normal; vertical-align: baseline; white-space-collapse: preserve;&quot;&gt;KNOWLEDGE &lt;/span&gt;&lt;span style=&quot;font-size: 11pt; font-family: &amp;quot;Roboto Mono&amp;quot;, monospace; color: rgb(0, 0, 0); background-color: transparent; font-variant-numeric: normal; font-variant-east-asian: normal; font-variant-alternates: normal; font-variant-position: normal; font-variant-emoji: normal; vertical-align: baseline; white-space-collapse: preserve;&quot;&gt;linkedin.com/company/cetin/&lt;/span&gt;&lt;/p&gt;&lt;div&gt;&lt;span style=&quot;font-size: 11pt; font-family: &amp;quot;Roboto Mono&amp;quot;, monospace; color: rgb(0, 0, 0); background-color: transparent; font-variant-numeric: normal; font-variant-east-asian: normal; font-variant-alternates: normal; font-variant-position: normal; font-variant-emoji: normal; vertical-align: baseline; white-space-collapse: preserve;&quot;&gt;&lt;br&gt;&lt;/span&gt;&lt;/div&gt;&lt;/span&gt;" style="text;html=1;align=left;verticalAlign=middle;whiteSpace=wrap;rounded=0;" vertex="1" parent="10">
                    <mxGeometry y="40" width="360" height="160" as="geometry"/>
                </mxCell>
                <mxCell id="12" value="Vertical Container" style="swimlane;whiteSpace=wrap;html=1;swimlaneFillColor=default;" vertex="1" parent="1">
                    <mxGeometry x="150" y="210" width="360" height="200" as="geometry">
                        <mxRectangle x="150" y="210" width="140" height="30" as="alternateBounds"/>
                    </mxGeometry>
                </mxCell>
                <mxCell id="13" value="&lt;span id=&quot;docs-internal-guid-f1325d4c-7fff-b18c-7b77-cb8e79276ec5&quot;&gt;&lt;p style=&quot;line-height:1.38;margin-top:12pt;margin-bottom:12pt;&quot; dir=&quot;ltr&quot;&gt;&lt;span style=&quot;font-size: 12pt; font-family: &amp;quot;Roboto Mono&amp;quot;, monospace; color: rgb(0, 0, 0); background-color: transparent; font-variant-numeric: normal; font-variant-east-asian: normal; font-variant-alternates: normal; font-variant-position: normal; font-variant-emoji: normal; vertical-align: baseline; white-space-collapse: preserve;&quot;&gt;Make post on LinkedIn based on &lt;/span&gt;&lt;span style=&quot;font-size: 12pt; font-family: &amp;quot;Roboto Mono&amp;quot;, monospace; color: rgb(9, 105, 217); background-color: transparent; font-weight: 700; font-variant-numeric: normal; font-variant-east-asian: normal; font-variant-alternates: normal; font-variant-position: normal; font-variant-emoji: normal; vertical-align: baseline; white-space-collapse: preserve;&quot;&gt;@Input&lt;/span&gt;&lt;span style=&quot;font-size: 12pt; font-family: &amp;quot;Roboto Mono&amp;quot;, monospace; color: rgb(0, 0, 0); background-color: transparent; font-variant-numeric: normal; font-variant-east-asian: normal; font-variant-alternates: normal; font-variant-position: normal; font-variant-emoji: normal; vertical-align: baseline; white-space-collapse: preserve;&quot;&gt;.&lt;/span&gt;&lt;/p&gt;&lt;p style=&quot;line-height:1.42125;margin-top:14pt;margin-bottom:0pt;&quot; dir=&quot;ltr&quot;&gt;&lt;span style=&quot;font-size: 12pt; font-family: &amp;quot;Roboto Mono&amp;quot;, monospace; color: rgb(153, 0, 0); background-color: transparent; font-weight: 700; font-variant-numeric: normal; font-variant-east-asian: normal; font-variant-alternates: normal; font-variant-position: normal; font-variant-emoji: normal; vertical-align: baseline; white-space-collapse: preserve;&quot;&gt;PERSONA &lt;/span&gt;&lt;span style=&quot;font-size: 12pt; font-family: &amp;quot;Roboto Mono&amp;quot;, monospace; color: rgb(9, 105, 217); background-color: transparent; font-weight: 700; font-variant-numeric: normal; font-variant-east-asian: normal; font-variant-alternates: normal; font-variant-position: normal; font-variant-emoji: normal; vertical-align: baseline; white-space-collapse: preserve;&quot;&gt;@Jane&lt;/span&gt;&lt;span style=&quot;font-size: 12pt; font-family: &amp;quot;Roboto Mono&amp;quot;, monospace; color: rgb(0, 0, 0); background-color: transparent; font-variant-numeric: normal; font-variant-east-asian: normal; font-variant-alternates: normal; font-variant-position: normal; font-variant-emoji: normal; vertical-align: baseline; white-space-collapse: preserve;&quot;&gt;, an experienced copywriter and HR expert&lt;/span&gt;&lt;/p&gt;&lt;p style=&quot;line-height:1.40625;margin-top:0pt;margin-bottom:0pt;&quot; dir=&quot;ltr&quot;&gt;&lt;span style=&quot;font-size: 12pt; font-family: &amp;quot;Roboto Mono&amp;quot;, monospace; color: rgb(153, 0, 0); background-color: transparent; font-weight: 700; font-variant-numeric: normal; font-variant-east-asian: normal; font-variant-alternates: normal; font-variant-position: normal; font-variant-emoji: normal; vertical-align: baseline; white-space-collapse: preserve;&quot;&gt;KNOWLEDGE &lt;/span&gt;&lt;span style=&quot;font-size: 12pt; font-family: &amp;quot;Roboto Mono&amp;quot;, monospace; color: rgb(0, 0, 0); background-color: transparent; font-variant-numeric: normal; font-variant-east-asian: normal; font-variant-alternates: normal; font-variant-position: normal; font-variant-emoji: normal; vertical-align: baseline; white-space-collapse: preserve;&quot;&gt;cetin.cz&lt;/span&gt;&lt;/p&gt;&lt;p style=&quot;line-height:1.40625;margin-top:0pt;margin-bottom:0pt;&quot; dir=&quot;ltr&quot;&gt;&lt;span style=&quot;font-size: 12pt; font-family: &amp;quot;Roboto Mono&amp;quot;, monospace; color: rgb(153, 0, 0); background-color: transparent; font-weight: 700; font-variant-numeric: normal; font-variant-east-asian: normal; font-variant-alternates: normal; font-variant-position: normal; font-variant-emoji: normal; vertical-align: baseline; white-space-collapse: preserve;&quot;&gt;KNOWLEDGE &lt;/span&gt;&lt;span style=&quot;font-size: 11pt; font-family: &amp;quot;Roboto Mono&amp;quot;, monospace; color: rgb(0, 0, 0); background-color: transparent; font-variant-numeric: normal; font-variant-east-asian: normal; font-variant-alternates: normal; font-variant-position: normal; font-variant-emoji: normal; vertical-align: baseline; white-space-collapse: preserve;&quot;&gt;linkedin.com/company/cetin/&lt;/span&gt;&lt;/p&gt;&lt;div&gt;&lt;span style=&quot;font-size: 11pt; font-family: &amp;quot;Roboto Mono&amp;quot;, monospace; color: rgb(0, 0, 0); background-color: transparent; font-variant-numeric: normal; font-variant-east-asian: normal; font-variant-alternates: normal; font-variant-position: normal; font-variant-emoji: normal; vertical-align: baseline; white-space-collapse: preserve;&quot;&gt;&lt;br&gt;&lt;/span&gt;&lt;/div&gt;&lt;/span&gt;" style="text;html=1;align=left;verticalAlign=middle;whiteSpace=wrap;rounded=0;" vertex="1" parent="12">
                    <mxGeometry y="40" width="360" height="160" as="geometry"/>
                </mxCell>
            </root>
        </mxGraphModel>
    </diagram>
</mxfile>